<?xml version="1.0" encoding="UTF-8"?>
<!DOCTYPE svg PUBLIC "-//W3C//DTD SVG 1.1//EN" "http://www.w3.org/Graphics/SVG/1.1/DTD/svg11.dtd">
<svg xmlns="http://www.w3.org/2000/svg" version="1.1" width="512px" height="512px"
     style="shape-rendering:geometricPrecision; text-rendering:geometricPrecision; image-rendering:optimizeQuality; fill-rule:evenodd; clip-rule:evenodd">
    <g>
        <path fill="#2563eb" stroke="#2563eb" stroke-width="0.5"
              d="M 2.99,399 c 0,-9.4 5.9,-15.51 14.55,-17.8 c 19.58,-0.16 39.16,-0.31 58.73,-0.45 c 0.49,-0.28 0.81,-0.69 0.97,-1.23 c 5.19,-17.19 18.24,-32.09 34.5,-39.95 c 37.25,-16.19 76.47,1.94 88.91,40.42 c 0.47,0.58 1.09,0.89 1.85,0.93 c 36.66,0.07 73.31,0.07 109.97,-0.02 c 0.51,-0.02 0.9,-0.25 1.16,-0.68 c 2.7,-9.12 5.54,-14.55 11.2,-21.82 c 1,-2.06 9.13,-8.73 9.09,-9.94 c 0.11,-78.32 0.13,-156.64 0.06,-234.96 c 0.32,-5.35 -1.58,-8.68 -3.49,-13.32 c -8.32,-12.16 -12.76,-13.72 -26.99,-15.91 c -80.01,0.06 -160.01,0 -240.02,-0.2 c -21.16,-6.2 -15.18,-35.45 6.02,-34.82 c 78,0 156,0 234,0.01 c 25.48,1.1 43.79,11.69 57,33.47 c 2.34,4.56 4.45,9.21 6.32,13.93 c 10.88,0.26 21.78,0.4 32.69,0.43 c 24.12,3.2 40.43,14.54 52.04,35.89 c 18.23,36.41 36.46,72.82 54.7,109.22 c 2.03,6.81 4.72,13.02 4.73,20.28 c 0,38.69 0.01,77.39 0.05,116.08 c -1.52,19.4 -18.07,35.87 -37.53,37.42 c -11.91,-0.04 -23.8,0.08 -35.69,0.36 c -0.41,0.29 -0.7,0.68 -0.86,1.16 c -5.8,16.53 -12.94,25.82 -27.02,35.84 c -37.36,23.17 -83.86,4.78 -96.31,-36.55 c -0.26,-0.42 -0.64,-0.65 -1.15,-0.68 c -36.33,-0.07 -72.65,-0.09 -108.98,-0.07 c -1.24,-0.21 -2.2,0.2 -2.87,1.23 c -6.28,18.44 -15.21,29.13 -31.99,38.84 c -38.71,18.4 -77.06,0.93 -91.43,-38.62 c -0.16,-0.53 -0.48,-0.93 -0.95,-1.22 c -19.57,-0.16 -39.14,-0.31 -58.72,-0.44 c -7.63,-1.41 -14.69,-8.9 -14.54,-16.83 Z M 368.99,135 c -0.05,34.46 0.01,68.91 0.16,103.35 c 0.33,0.46 0.77,0.66 1.34,0.62 c 31.27,0.07 62.54,-0.01 93.81,-0.22 c 0.35,-0.19 0.42,-0.46 0.2,-0.8 c -13.75,-27.28 -27.31,-54.89 -40.73,-82.3 c -13.42,-27.58 -25.58,-23.48 -53.28,-23.63 c -1.84,-0.15 -1.48,1.8 -1.5,2.98 Z M 2.99,161 c -0.5,-7.09 6.41,-15.26 13.49,-16.16 c 41.34,-0.15 82.68,-0.18 124.02,-0.1 c 1.82,-0.1 3.54,0.26 5.18,1.05 c 17.37,9.17 12.24,31.2 -6.36,33.85 c -39.59,0.05 -79.19,0.06 -118.79,0.03 c -9.67,-0.93 -18.55,-8.21 -17.54,-18.67 Z M 50.06,233 c 0.41,-9.04 6.89,-17.29 16.44,-17.27 c 49.01,-0.07 98.01,-0.03 147.02,0.11 c 3.49,0.35 7.01,3.43 9.7,5.49 c 0.82,1.43 1.19,3.08 2.83,3.9 c 4,13.78 -3.36,24.42 -17.55,25.47 c -47.27,0.02 -94.54,-0.01 -141.81,-0.09 c -9.03,-1.26 -16.25,-8.32 -16.63,-17.61 Z M 368.99,330 c -0.4,5.18 1.69,4.35 5.7,3.4 c 28.01,-0.18 54.29,19.18 62.2,46.08 c 0.15,0.51 0.45,0.91 0.9,1.21 c 10.56,0.28 21.14,0.37 31.72,0.29 c 4.3,-0.01 6.46,-2.17 6.48,-6.48 c 0.08,-33.27 0.01,-66.54 -0.2,-99.8 c -0.64,-0.56 -1.4,-0.78 -2.28,-0.67 c -34.62,-0.04 -69.24,0.01 -103.85,0.15 c -0.58,0.64 -0.81,1.41 -0.67,2.3 c 0.01,17.84 0.01,35.68 0,53.52 Z M 2.99,303 c -0.27,-6.39 3.72,-11.36 8.96,-14.44 c 7.32,-3.77 47.7,-1 58.55,-1.78 c 6.63,0.53 12.7,6.47 14.34,12.75 c 1.67,11.82 -4.04,19.43 -15.56,21.97 c -18.21,0.23 -38.2,1.92 -56.01,-1.26 c -6.66,-5.23 -10.58,-7.61 -10.28,-17.24 Z M 345.63,399 c 1.41,34.62 48.99,40.88 58.88,6 c 5.18,-26.53 -23.5,-46.2 -45.96,-30.94 c -8.53,6.13 -12.83,14.44 -12.92,24.94 Z M 109.02,399 c 0.35,29.17 38.18,40.5 54.87,15.42 c 22.4,-39.28 -40.95,-67.93 -54.58,-21.75 c -0.21,2.1 -0.31,4.21 -0.29,6.33 Z"/>
    </g>
</svg>
