<?xml version="1.0" encoding="UTF-8"?>
<!DOCTYPE svg PUBLIC "-//W3C//DTD SVG 1.1//EN" "http://www.w3.org/Graphics/SVG/1.1/DTD/svg11.dtd">
<svg xmlns="http://www.w3.org/2000/svg" version="1.1" width="256px" height="256px"
     style="shape-rendering:geometricPrecision; text-rendering:geometricPrecision; image-rendering:optimizeQuality; fill-rule:evenodd; clip-rule:evenodd">
    <g>
        <path fill="#16a34a" stroke="#16a34a" stroke-width="0.5"
              d="M 32,60 c -0.34,-10.59 6.19,-19.33 16.45,-21.94 c 25.68,-5.68 51.36,-11.35 77.05,-17.01 c 2,-0.17 4,-0.12 5.99,0.13 c 24.98,5.69 49.96,11.36 74.95,17.01 c 10.16,2.52 16,8.95 17.51,19.31 c -0.25,37.02 3.67,71.11 -13.57,105.45 c -16.28,33.27 -41.6,56.83 -75.95,70.68 c -15,4.99 -41.95,-14.99 -53.36,-24.2 c -29.14,-25.83 -45.41,-58.13 -48.79,-96.92 c -0.28,-17.5 -0.37,-35 -0.28,-52.51 Z M 84.93,123 c -0.69,8 22.44,25.11 27.69,31.8 c 4.58,3.71 11.01,3.79 15.41,-0.27 c 16.98,-16.67 33.95,-33.35 50.9,-50.05 c 9.63,-11.15 -5.77,-24.72 -15.61,-14.66 c -14.31,13.98 -28.68,27.87 -43.12,41.68 c -0.62,0.02 -1.15,-0.2 -1.58,-0.65 c -5.35,-5.29 -10.73,-10.56 -16.12,-15.8 c -7.3,-5.75 -17.3,-1.29 -17.57,7.95 Z"/>
    </g>
    <g>
        <path fill="#ffffff" stroke="#ffffff" stroke-width="0.5"
              d="M 84.93,123 c 0.27,-9.24 10.27,-13.7 17.57,-7.95 c 5.39,5.24 10.77,10.51 16.12,15.8 c 0.43,0.45 0.96,0.67 1.58,0.65 c 14.44,-13.81 28.81,-27.7 43.12,-41.68 c 9.84,-10.06 25.24,3.51 15.61,14.66 c -16.95,16.7 -33.92,33.38 -50.9,50.05 c -4.4,4.06 -10.83,3.98 -15.41,0.27 c -5.25,-6.69 -28.38,-23.8 -27.69,-31.8 Z"/>
    </g>
</svg>
