<?xml version="1.0" encoding="UTF-8"?>
<!DOCTYPE svg PUBLIC "-//W3C//DTD SVG 1.1//EN" "http://www.w3.org/Graphics/SVG/1.1/DTD/svg11.dtd">
<svg xmlns="http://www.w3.org/2000/svg" version="1.1" width="256px" height="256px"
     style="shape-rendering:geometricPrecision; text-rendering:geometricPrecision; image-rendering:optimizeQuality; fill-rule:evenodd; clip-rule:evenodd">
    <g>
        <path fill="#878796" fill-opacity="0.071" stroke="#878796" stroke-width="0.5" stroke-opacity="0.071"
              d="M 199.07,81.6 c -0.82,0.29 -1.66,0.45 -2.53,0.49 c -45.35,-0.18 -90.7,-0.16 -136.05,0.05 c -0.9,-0.05 -1.74,-0.28 -2.52,-0.72 c 1.49,-0.3 3,-0.46 4.53,-0.46 c 43.67,0.06 87.33,0.06 131,0 c 1.88,-0.02 3.74,0.2 5.57,0.64 Z M 228.04,234.78 c -66.69,0.29 -133.38,0.29 -200.07,0 c 0.16,-0.72 0.64,-1.01 1.43,-0.89 c 65.73,0.18 131.46,0.19 197.19,0.02 c 0.76,-0.09 1.24,0.19 1.45,0.87 Z"/>
    </g>
    <g>
        <path fill="#81899c" fill-opacity="0.435"
              d="M 183.64,150.98 c -7.24,0.08 -14.49,-0.01 -21.76,-0.29 c 0.08,-0.28 0.28,-0.45 0.6,-0.51 c 7,-0.23 14,-0.28 21,-0.13 c 0.38,0.25 0.44,0.56 0.16,0.93 Z"/>
    </g>
    <g>
        <path fill="#818399" fill-opacity="0.055" stroke="#818399" stroke-width="0.5" stroke-opacity="0.055"
              d="M 84.01,174.46 c -2.24,1.84 -0.86,9.24 -1.11,11.96 c -0.15,0.43 -0.44,0.62 -0.88,0.58 c -0.03,-4.17 -0.03,-8.35 0.01,-12.53 c 0.04,-1.92 1.33,-0.62 1.98,-0.01 Z"/>
    </g>
    <g>
        <path fill="#80899c" stroke="#80899c" stroke-width="0.5"
              d="M 256,215.03 c 0,2.98 0,5.96 0,8.94 c -1.18,0.43 -0.38,3.35 -1.13,4.37 c -4.9,14.06 -16.4,22.12 -31.37,21.63 c -65.62,0.06 -131.24,0 -196.86,-0.18 c -11.86,-0.8 -25.73,-13.27 -25.97,-25.1 c -0.11,-0.35 -0.33,-0.59 -0.67,-0.72 c 0,-2.98 0,-5.96 0,-8.94 c 0.31,-0.13 0.51,-0.36 0.58,-0.69 c 10.38,-41.96 20.9,-83.9 31.55,-125.81 c 4.29,-13.37 13.41,-20.86 27.37,-22.47 c 12.61,0.04 25.21,-0.04 37.8,-0.24 c 0.07,-0.13 0.14,-0.26 0.21,-0.39 c -12.33,-17.92 -7.99,-41.21 10.08,-53.3 c 35.01,-22.04 74.34,19.22 50.9,53.31 c 0.07,0.12 0.14,0.25 0.21,0.38 c 12.59,0.2 25.19,0.28 37.8,0.23 c 14.35,1.13 24.65,9.98 28.11,23.92 c 10.33,41.44 20.6,82.89 30.8,124.35 c 0.1,0.32 0.3,0.55 0.59,0.71 Z M 105.57,44 c 1.86,29.58 43.71,29.03 44.85,-0.5 c -1.36,-30.18 -44.29,-29.48 -44.85,0.5 Z M 57.97,81.42 c -5.67,1.53 -9.41,5.08 -11.22,10.65 c -10.49,41.49 -20.95,82.99 -31.36,124.5 c -1.8,8.86 3.76,16.66 12.58,18.21 c 66.69,0.29 133.38,0.29 200.07,0 c 8.79,-1.58 14.04,-9 12.66,-17.85 c -10.34,-41.66 -20.72,-83.31 -31.13,-124.95 c -1.69,-5.29 -5.19,-8.75 -10.5,-10.38 c -1.83,-0.44 -3.69,-0.66 -5.57,-0.64 c -43.67,0.06 -87.33,0.06 -131,0 c -1.53,0 -3.04,0.16 -4.53,0.46 Z M 84.01,174.46 c -0.65,-0.61 -1.94,-1.91 -1.98,0.01 c -0.04,4.18 -0.04,8.36 -0.01,12.53 c -1.35,9.08 -13.08,9.38 -14.9,0.49 c -0.13,-19.66 -0.14,-39.32 0,-58.98 c 1.42,-5.11 4.72,-7.13 9.91,-6.07 c 7.23,2.72 4.42,11.2 5.03,17.08 c 0.01,0.45 0.2,0.78 0.55,1 c 5.61,-4.85 11.11,-9.82 16.5,-14.93 c 5.07,-5.35 13.34,-2.63 13.59,4.9 c -0.23,6.07 -19.45,19.69 -23.8,24.9 c -1.08,1.07 -1.04,2.11 0.11,3.13 c 7.97,7.67 15.92,15.36 23.84,23.07 c 5.83,7.31 -3.3,16.74 -11.02,10.08 c -6.01,-5.66 -11.95,-11.4 -17.82,-17.21 Z M 153.95,178.87 c 0.69,0.07 1.38,0.12 2.06,0.15 c 8.63,-0.09 14.18,-4.27 16.64,-12.55 c 0.15,-0.47 0.02,-0.82 -0.39,-1.06 c -3.58,0.22 -7.13,0.05 -10.65,-0.5 c -6.58,-3.21 -5.96,-11.05 0.27,-14.22 c 7.27,0.28 14.52,0.37 21.76,0.29 c 9.82,3.03 3.86,19.65 1.01,26.08 c -16.46,30.82 -61.75,16.56 -63.65,-17.05 c -0.01,-1.34 -0.01,-2.68 -0.01,-4.02 c 1.44,-20.5 18.01,-34.97 38.52,-33.93 c 7.45,0.83 24.7,5 19.79,15.92 c -4.29,6.65 -9.68,3.22 -15,0.44 c -27.43,-9.94 -42.06,33.01 -10.35,40.45 Z"/>
    </g>
    <g>
        <path fill="#828e9f" fill-opacity="0.086"
              d="M 120.99,155.99 c 0,1.34 0,2.68 0.01,4.02 c -1.13,0.29 -1.04,-2.01 -1.1,-2.59 c -0.07,-0.87 0.29,-1.35 1.09,-1.43 Z"/>
    </g>
    <g>
        <path fill="#828c9c" fill-opacity="0.114"
              d="M 156.01,179.02 c -0.68,-0.03 -1.37,-0.08 -2.06,-0.15 c 0.1,-1.76 2.41,-0.83 2.06,0.15 Z"/>
    </g>
</svg>
